<svg height="100" viewBox="0 0 32 32" width="100" xmlns="http://www.w3.org/2000/svg"><path d="m15.536 0c-.156-.005-.312.027-.457.093l-6.5 2.975c-1.219.557-.385 2.38.828 1.823l6.505-2.973c.984-.428.697-1.896-.376-1.917zm7.5.473c-.161-.004-.312.027-.457.1l-14.005 6.5c-1.213.563-.371 2.38.839 1.817l14.009-6.505c.98-.432.683-1.896-.385-1.912zm0 4c-.161-.004-.312.032-.457.1l-14.005 6.505c-1.213.561-.371 2.375.839 1.817l14.009-6.511c.975-.432.683-1.891-.385-1.912zm0 4.006c-.161-.005-.312.032-.457.1l-14.005 6.5c-1.213.561-.371 2.38.839 1.817l14.009-6.505c.975-.432.683-1.891-.385-1.912zm.011 4c-.156-.005-.312.027-.459.095l-5 2.249c-.359.161-.593.521-.593.917v4.687c0 .021.005.043.005.063h-2.005c0-.02 0-.041 0-.063v-3.437c.011-.568-.453-1.025-1.016-1.016-.552.005-.995.464-.984 1.016v3.437.063h-1.249c-.401-.016-.709.349-.631.74l.255 1.52c.084.423.443.729.876.74h3.041l-3.385.636c-.271.052-.453.312-.401.588.052.271.312.448.588.396l8-1.5c.261-.047.439-.287.412-.547.063-.093.104-.199.125-.313l.249-1.52c.084-.391-.224-.756-.624-.74h-1.256c.005-.02.005-.041.005-.063v-4.041l4.412-1.989c.979-.423.703-1.88-.365-1.917zm-3.058 12.51c-.025.005-.057.005-.083.011l-8.005 1.505c-.271.047-.453.307-.401.583.052.272.312.448.588.396l8-1.5c.625-.099.532-1.02-.099-.995zm0 2.506c-.025 0-.057.005-.083.011l-8.005 1.5c-.271.047-.453.312-.401.583.052.272.312.453.588.396l8-1.5c.625-.099.532-1.015-.099-.989zm-.989 2.5c-.027 0-.057.005-.083.011l-5.964 1c-.271.047-.459.301-.412.573.047.276.303.457.579.411l5.963-1c.636-.072.557-1.025-.083-.995z"/></svg>
